Coordinates
version=1
nRows=19
nColumns=33
inDegrees=yes

Units are S.I. units (second, meters, Newtons, ...)
Angles are in degrees.

endheader
time	ground_thorax_rot_x	ground_thorax_rot_y	ground_thorax_rot_z	ground_thorax_tx	ground_thorax_ty	ground_thorax_tz	clav_prot_r	clav_elev_r	scapula_abduction_r	scapula_elevation_r	scapula_upward_rot_r	scapula_winging_r	shoulder_elv_r	plane_of_elev_r	axial_rot_r	elbow_flexion_r	pro_sup_r	wrist_flex_r	wrist_dev_r	clav_prot_l	clav_elev_l	scapula_abduction_l	scapula_elevation_l	scapula_upward_rot_l	scapula_winging_l	shoulder_elv_l	plane_of_elev_l	axial_rot_l	elbow_flexion_l	pro_sup_l	wrist_flex_l	wrist_dev_l
     10.03000000	    -40.20748948	     -2.20133947	     -2.24061961	     -9.19064531	    810.39082748	      0.01190304	      3.51640380	    -45.00000000	     45.00000000	    -45.00000000	     -4.04792980	  -3687.68269735	  -2096.97937293	     29.58863188	     71.94275085	    731.02888444	     20.58592102	     17.73746393	     10.00001533	     15.04155406	     42.54375441	    -45.00000000	    -41.16307591	    -21.97305973	   1518.08711513	  -1901.08615894	    135.62290970	   -179.99999979	   1085.85621200	     16.31998143	     13.62232937	    -18.61524923
     10.04000000	    -40.05890563	     -2.69155134	     -1.99537170	     -7.19905271	    808.86401119	      0.43557783	      3.78231412	    -45.00000000	     45.00000000	    -45.00000000	     -4.56849943	  -3687.43097093	  -2097.04082922	     29.47188065	     72.18796234	    730.92490721	     20.45833066	     17.71314667	     10.21346434	     15.26061332	     42.27067464	    -45.00000000	    -40.87669148	    -22.48353240	   1517.94977156	  -1900.96932680	    135.46944766	   -179.99999979	   1085.60232105	     16.85496867	     13.43398398	    -18.51162140
     10.05000000	    -39.87489909	     -3.04564316	     -1.78728691	     -5.55118707	    807.55081209	      0.84496747	      4.07181874	    -45.00000000	     45.00000000	    -45.00000000	     -5.06151889	  -3687.43717837	  -2097.20189808	     29.53748954	     72.42479496	    730.70581643	     20.26686064	     17.53283030	     10.11384237	     14.88346101	     41.78310879	    -45.00000000	    -40.41529039	    -22.63544766	   1517.96471656	  -1900.82703194	    135.35575323	   -179.94287390	   1085.48630828	     17.37677954	     13.36233122	    -18.38525444
     10.06000000	    -39.71384403	     -3.10085313	     -2.01309169	     -4.25538008	    806.42642937	      1.23624448	      3.92968555	    -45.00000000	     45.00000000	    -45.00000000	     -4.95779553	  -3687.20922498	  -2097.23887120	     29.39731727	     72.63423302	    730.56803110	     20.04127279	     17.46398607	     10.23402609	     14.90298159	     41.67519359	    -45.00000000	    -40.17781709	    -22.13121009	   1517.78871391	  -1900.97343220	    135.54452580	   -179.99999979	   1085.39496329	     17.96672340	     13.05030794	    -18.32386699
     10.07000000	    -39.52240946	     -3.18208420	     -2.20470246	     -3.31883932	    805.46989813	      1.60347681	      3.87174663	    -45.00000000	     45.00000000	    -45.00000000	     -4.96255517	  -3687.06241674	  -2097.22447504	     29.33848405	     72.84882806	    730.41799059	     19.83789436	     17.38051049	     10.33069813	     14.82256146	     41.29586541	    -45.00000000	    -39.95252686	    -21.75673568	   1517.72604353	  -1901.15811149	    135.58099020	   -179.99999979	   1085.26406915	     18.57474595	     12.77230755	    -18.25793384
     10.08000000	    -39.34225139	     -3.45342267	     -2.26146001	     -2.73610564	    804.65631979	      1.94364952	      3.82441410	    -45.00000000	     45.00000000	    -45.00000000	     -5.06901353	  -3686.94689092	  -2097.17507273	     29.24868814	     73.01368108	    730.43348444	     19.65057520	     17.37955124	     10.47176713	     14.72970657	     41.19562504	    -45.00000000	    -39.57618844	    -21.38712733	   1517.81946588	  -1901.29028545	    135.75180352	   -179.99794296	   1085.17881573	     19.14255791	     12.22884245	    -18.19780460
     10.09000000	    -39.22034385	     -3.48032809	     -2.41076657	     -2.49504352	    803.95894272	      2.25453787	      3.85386796	    -45.00000000	     45.00000000	    -45.00000000	     -5.08555251	  -3687.04751545	  -2097.28937442	     29.22229215	     73.08615067	    730.30375486	     19.48048546	     17.29974740	     10.45449907	     14.60251448	     41.18324011	    -45.00000000	    -39.35388881	    -21.13184027	   1517.88774740	  -1901.23332344	    135.68289537	   -179.99999979	   1085.24333542	     19.77913676	     12.02211923	    -18.23670551
     10.10000000	    -39.12736097	     -3.63068241	     -2.57362644	     -2.58578786	    803.36076809	      2.53174237	      3.78483120	    -45.00000000	     45.00000000	    -45.00000000	     -5.13629986	  -3686.96534435	  -2097.30772127	     29.08305964	     73.23409954	    730.24697832	     19.35952772	     17.29811487	     10.61004845	     14.52881604	     41.11062471	    -45.00000000	    -39.17236348	    -20.83736539	   1517.98008740	  -1901.33085515	    135.77530945	   -179.99999979	   1085.18076809	     20.41190356	     11.49620965	    -18.22505729
     10.11000000	    -39.01699481	     -3.61478320	     -2.77513164	     -2.99159480	    802.83647400	      2.77421074	      3.83791332	    -45.00000000	     45.00000000	    -45.00000000	     -5.19612143	  -3687.16060862	  -2097.41370508	     29.17132006	     73.30938384	    730.07694167	     19.25899531	     17.19842244	     10.51219113	     14.42110301	     41.12347028	    -45.00000000	    -39.02407539	    -20.66886520	   1518.07166855	  -1901.22231388	    135.67967489	   -179.99999979	   1085.11727831	     21.09069423	     11.46196075	    -18.27861798
     10.12000000	    -38.95056149	     -3.82108318	     -2.82875206	     -3.70034501	    802.36608946	      2.97985821	      3.76088430	    -45.00000000	     45.00000000	    -45.00000000	     -5.32016376	  -3687.00554686	  -2097.27252429	     28.91790284	     73.57795878	    730.10663926	     19.22297476	     17.28812157	     10.77735398	     14.36400184	     41.04230453	    -45.00000000	    -38.99738584	    -20.49482549	   1518.17728026	  -1901.51127575	    135.84197416	   -179.99999979	   1085.08107067	     21.66874017	     10.80396791	    -18.28397787
     10.13000000	    -38.89787380	     -3.76684806	     -3.08817777	     -4.70133885	    801.92995859	      3.14594549	      3.87276131	    -45.00000000	     45.00000000	    -45.00000000	     -5.44349881	  -3687.25604641	  -2097.42067569	     29.11144975	     73.73251526	    729.98371097	     19.17984107	     17.18277683	     10.56944408	     14.32037974	     41.04722600	    -45.00000000	    -39.09246616	    -20.59842813	   1518.15657519	  -1901.41655930	    135.68617548	   -179.98966160	   1085.06747217	     22.32946328	     11.05479236	    -18.38902526
     10.14000000	    -38.82747486	     -3.90329781	     -3.05809618	     -5.98690355	    801.51035815	      3.26988234	      3.88739687	    -45.00000000	     45.00000000	    -45.00000000	     -5.69921260	  -3687.30787496	  -2097.31396049	     28.93880802	     74.06483084	    729.93207722	     19.20288553	     17.21861094	     10.70635281	     14.33856114	     40.97378766	    -45.00000000	    -39.06699772	    -20.66289304	   1518.26592495	  -1901.54592519	    135.72928915	   -179.99999979	   1085.08792881	     22.78970296	     10.56231786	    -18.43751105
     10.15000000	    -38.73661631	     -4.01330916	     -3.10436338	     -7.55009589	    801.09151041	      3.34848593	      3.94321943	    -45.00000000	     45.00000000	    -45.00000000	     -5.83338072	  -3687.64782696	  -2097.34066532	     28.98757092	     74.35212182	    729.89589942	     19.23231513	     17.20831168	     10.62259728	     14.33260412	     41.01574123	    -45.00000000	    -38.87112219	    -20.77707481	   1518.47589292	  -1901.42035375	    135.69477210	   -179.98787406	   1085.01410227	     23.13064571	     10.55122686	    -18.49437572
     10.16000000	    -38.72327444	     -4.12181251	     -3.11699300	     -9.38491150	    800.66095734	      3.37956162	      3.95458606	    -45.00000000	     45.00000000	    -45.00000000	     -6.05327308	  -3687.77718063	  -2097.28641380	     28.81179516	     74.78476621	    729.92577391	     19.30566008	     17.25137947	     10.67662718	     14.31900638	     40.96573045	    -45.00000000	    -38.86212758	    -20.85346156	   1518.66704183	  -1901.51213743	    135.78243456	   -179.99999979	   1085.08113478	     23.29498283	     10.24987068	    -18.59118805
     10.17000000	    -38.72493045	     -4.19164185	     -3.19289187	    -11.48723496	    800.20937132	      3.36226723	      4.09101783	    -45.00000000	     45.00000000	    -45.00000000	     -6.35598436	  -3688.07022536	  -2097.36155044	     28.87186037	     75.17598973	    729.86924944	     19.37695366	     17.21848093	     10.54733669	     14.37903466	     40.98724450	    -45.00000000	    -38.97322379	    -21.27771899	   1518.70127860	  -1901.43862218	    135.76643360	   -179.99900860	   1085.06648151	     23.42709823	     10.50066705	    -18.65868772
     10.18000000	    -38.67084350	     -4.37387033	     -3.06830103	    -13.85338224	    799.73210541	      3.29834192	      4.11252380	    -45.00000000	     45.00000000	    -45.00000000	     -6.67607242	  -3688.31788555	  -2097.22124644	     28.68535827	     75.65840290	    729.88237731	     19.47923158	     17.28209760	     10.65387086	     14.47108943	     40.92349795	    -45.00000000	    -38.87424297	    -21.54554116	   1518.95673181	  -1901.50681393	    135.77795977	   -179.99999979	   1084.91234571	     23.35591238	     10.14458200	    -18.71175179
     10.19000000	    -38.71973321	     -4.32613669	     -3.16876468	    -16.48466762	    799.22756216	      3.19103337	      4.28384734	    -45.00000000	     45.00000000	    -45.00000000	     -6.99569155	  -3688.75985337	  -2097.38423962	     28.77141890	     76.07344835	    729.85796948	     19.55346099	     17.21455709	     10.40093693	     14.48756584	     40.93863889	    -45.00000000	    -39.04376014	    -21.99764015	   1518.96640553	  -1901.36378400	    135.78853599	   -179.99999979	   1085.07301477	     23.29815241	     10.70551262	    -18.82374097
     10.20000000	    -38.81405543	     -4.45818356	     -3.21709812	    -19.37628930	    798.69877026	      3.04477853	      4.47781516	    -45.00000000	     45.00000000	    -45.00000000	     -7.52381692	  -3688.68383861	  -2097.22868216	     28.57915428	     76.49303339	    729.80377332	     19.65094719	     17.21833137	     10.42528555	     14.62503254	     41.03770302	    -45.00000000	    -39.37963887	    -22.46522081	   1518.93391639	  -1901.56197225	    136.04079605	   -179.99999979	   1085.11601361	     23.10876684	     10.59376475	    -18.93634619
     10.21000000	    -38.85544597	     -4.98059011	     -2.58269836	    -22.52408680	    798.15123914	      2.86374115	      4.89771181	    -45.00000000	     45.00000000	    -45.00000000	     -8.52580291	  -3689.11377537	  -2097.16659156	     28.38467069	     76.71987136	    729.85123774	     19.70268378	     17.23696236	     10.38497839	     15.08277157	     41.28852969	    -45.00000000	    -39.53837747	    -24.17704708	   1518.89085131	  -1901.30218748	    135.93297728	   -179.99999979	   1085.05568126	     22.77031275	     10.40899374	    -18.84092459
